<svg width="32" height="32" viewBox="0 0 32 32" fill="none" xmlns="http://www.w3.org/2000/svg">
<g clip-path="url(#clip0_1_38)">
<path fill-rule="evenodd" clip-rule="evenodd" d="M7.70007 2.28334H21.8169C25.3607 2.28334 28.2336 5.15622 28.2336 8.70007V10.6732C28.685 10.7694 29.1143 10.9084 29.517 11.0885V8.70007C29.517 4.44744 26.0695 1 21.8169 1H7.70007C3.44744 1 0 4.44744 0 8.70007V22.8169C0 27.0695 3.44744 30.517 7.70007 30.517H21.8169C26.0695 30.517 29.517 27.0695 29.517 22.8169V22.6258C29.107 22.7677 28.6748 22.873 28.2324 22.9442C28.1646 26.4293 25.3182 29.2336 21.8169 29.2336H7.70007C4.15621 29.2336 1.28334 26.3607 1.28334 22.8169V8.70007C1.28334 5.15621 4.15622 2.28334 7.70007 2.28334ZM28.2336 21.6426C28.7033 21.553 29.1354 21.4193 29.517 21.2466V18.1326C29.2781 18.1894 29.0722 18.3118 28.8237 18.5315C28.7032 18.6382 28.5866 18.7331 28.4718 18.8171C28.3917 18.8758 28.3125 18.9293 28.2336 18.9776V21.6426ZM28.2336 17.5338H29.517V12.5362C29.1354 12.3021 28.7058 12.1181 28.2336 11.9922V17.5338Z" fill="url(#paint0_linear_1_38)"/>
<path fill-rule="evenodd" clip-rule="evenodd" d="M8.70007 2.28334H22.8169C26.3607 2.28334 29.2336 5.15622 29.2336 8.70007V10.6732C29.685 10.7694 30.1143 10.9084 30.517 11.0885V8.70007C30.517 4.44744 27.0695 1 22.8169 1H8.70007C4.44744 1 1 4.44744 1 8.70007V22.8169C1 27.0695 4.44744 30.517 8.70007 30.517H22.8169C27.0695 30.517 30.517 27.0695 30.517 22.8169V22.6258C30.107 22.7677 29.6748 22.873 29.2324 22.9442C29.1646 26.4293 26.3182 29.2336 22.8169 29.2336H8.70007C5.15621 29.2336 2.28334 26.3607 2.28334 22.8169V8.70007C2.28334 5.15621 5.15622 2.28334 8.70007 2.28334ZM29.2336 21.6426C29.7033 21.553 30.1354 21.4193 30.517 21.2466V18.1326C30.2781 18.1894 30.0722 18.3118 29.8237 18.5315C29.7032 18.6382 29.5866 18.7331 29.4718 18.8171C29.3917 18.8758 29.3125 18.9293 29.2336 18.9776V21.6426ZM29.2336 17.5338H30.517V12.5362C30.1354 12.3021 29.7058 12.1181 29.2336 11.9922V17.5338Z" fill="url(#paint1_radial_1_38)"/>
<path d="M10.7431 22.515C9.48736 22.515 8.85088 21.9215 8.4724 20.6056L6.9414 15.2556C6.79518 14.7482 6.72638 14.4558 6.72638 14.0945C6.72638 13.2258 7.44887 12.5893 8.4208 12.5893C9.30672 12.5893 9.91744 13.1742 10.098 14.1117L11.07 19.2122H11.1388L12.1107 14.2235C12.3171 13.1655 13.0052 12.5893 14.0718 12.5893C15.1298 12.5893 15.8264 13.1655 16.0329 14.2321L17.0134 19.2122H17.0822L18.0627 14.0773C18.2347 13.1655 18.8368 12.5893 19.7055 12.5893C20.6602 12.5893 21.3484 13.2171 21.3484 14.0686C21.3484 14.4213 21.2796 14.7138 21.1419 15.2126L19.611 20.5884C19.2325 21.9215 18.5788 22.515 17.2972 22.515C15.9554 22.515 15.2674 21.9302 14.9749 20.5712L14.0288 16.1846H13.96L13.0224 20.6056C12.7386 21.9474 12.0591 22.515 10.7431 22.515ZM26.7843 22.5408C23.6707 22.5408 21.8214 20.6916 21.8214 17.6038C21.8214 14.4987 23.6879 12.5634 26.6725 12.5634C29.6141 12.5634 31.515 14.4386 31.515 16.993C31.515 17.836 31.0333 18.3005 30.156 18.3005H25.2189V18.5241C25.2189 19.453 25.8898 20.1239 26.8359 20.1239C27.6014 20.1239 28.1519 19.8917 28.8228 19.2982C29.1926 18.9714 29.4679 18.8595 29.8979 18.8595C30.5774 18.8595 31.1882 19.2982 31.1882 20.0551C31.1882 20.3218 31.1107 20.5798 30.9559 20.8292C30.3194 21.8871 28.7196 22.5408 26.7843 22.5408ZM25.2705 16.391H28.2293C28.1691 15.5394 27.5756 14.989 26.7499 14.989C25.95 14.989 25.3393 15.5738 25.2705 16.391Z" fill="black"/>
<mask id="mask0_1_38" style="mask-type:luminance" maskUnits="userSpaceOnUse" x="4" y="11" width="29" height="13">
<path d="M32.8167 11.1H4.81673V23.9H32.8167V11.1Z" fill="white"/>
<path d="M10.7431 22.515C9.48736 22.515 8.85088 21.9215 8.4724 20.6056L6.9414 15.2556C6.79518 14.7482 6.72638 14.4558 6.72638 14.0945C6.72638 13.2258 7.44887 12.5893 8.4208 12.5893C9.30672 12.5893 9.91744 13.1742 10.098 14.1117L11.07 19.2122H11.1388L12.1107 14.2235C12.3171 13.1655 13.0052 12.5893 14.0718 12.5893C15.1298 12.5893 15.8264 13.1655 16.0329 14.2321L17.0134 19.2122H17.0822L18.0627 14.0773C18.2347 13.1655 18.8368 12.5893 19.7055 12.5893C20.6602 12.5893 21.3484 13.2171 21.3484 14.0686C21.3484 14.4213 21.2796 14.7138 21.1419 15.2126L19.611 20.5884C19.2325 21.9215 18.5788 22.515 17.2972 22.515C15.9554 22.515 15.2674 21.9302 14.9749 20.5712L14.0288 16.1846H13.96L13.0224 20.6056C12.7386 21.9474 12.0591 22.515 10.7431 22.515ZM26.7843 22.5408C23.6707 22.5408 21.8214 20.6916 21.8214 17.6038C21.8214 14.4987 23.6879 12.5634 26.6725 12.5634C29.6141 12.5634 31.515 14.4386 31.515 16.993C31.515 17.836 31.0333 18.3005 30.156 18.3005H25.2189V18.5241C25.2189 19.453 25.8898 20.1239 26.8359 20.1239C27.6014 20.1239 28.1519 19.8917 28.8228 19.2982C29.1926 18.9714 29.4679 18.8595 29.8979 18.8595C30.5774 18.8595 31.1882 19.2982 31.1882 20.0551C31.1882 20.3218 31.1107 20.5798 30.9559 20.8292C30.3194 21.8871 28.7196 22.5408 26.7843 22.5408ZM25.2705 16.391H28.2293C28.1691 15.5394 27.5756 14.989 26.7499 14.989C25.95 14.989 25.3393 15.5738 25.2705 16.391Z" fill="black"/>
</mask>
<g mask="url(#mask0_1_38)">
<path d="M8.4724 20.6056L7.23859 20.9586L7.23906 20.9602L8.4724 20.6056ZM6.9414 15.2556L8.1752 14.9026L8.17456 14.9003L6.9414 15.2556ZM10.098 14.1117L11.3587 13.8714L11.3582 13.8689L10.098 14.1117ZM11.07 19.2122L9.80928 19.4524L10.0081 20.4955H11.07V19.2122ZM11.1388 19.2122V20.4955H12.1962L12.3984 19.4576L11.1388 19.2122ZM16.0329 14.2321L14.7729 14.4759L14.7737 14.48L16.0329 14.2321ZM17.0134 19.2122L15.7542 19.4601L15.9581 20.4955H17.0134V19.2122ZM17.0822 19.2122V20.4955H18.1437L18.3427 19.4529L17.0822 19.2122ZM18.0627 14.0773L19.3233 14.318L19.3238 14.3152L18.0627 14.0773ZM21.1419 15.2126L22.3762 15.5642L22.3791 15.5539L21.1419 15.2126ZM19.611 20.5884L18.3766 20.2369L18.3764 20.2379L19.611 20.5884ZM14.0288 16.1846L15.2833 15.914L15.0648 14.9012H14.0288V16.1846ZM13.96 16.1846V14.9012H12.9202L12.7046 15.9183L13.96 16.1846ZM10.7431 21.2317C10.324 21.2317 10.1814 21.1375 10.1161 21.0812C10.0222 21.0004 9.86256 20.796 9.70576 20.2509L7.23906 20.9602C7.46073 21.7311 7.80854 22.4814 8.44144 23.0263C9.10288 23.5958 9.90648 23.7984 10.7431 23.7984V21.2317ZM9.70624 20.2525L8.1752 14.9026L5.70758 15.6087L7.23859 20.9586L9.70624 20.2525ZM8.17456 14.9003C8.03184 14.4049 8.00968 14.2616 8.00968 14.0945H5.44302C5.44302 14.6498 5.55854 15.0915 5.70822 15.611L8.17456 14.9003ZM8.00968 14.0945C8.00968 14.0367 8.02592 14.007 8.06024 13.9766C8.10296 13.9388 8.21384 13.8726 8.4208 13.8726V11.3059C6.89034 11.3059 5.44302 12.3755 5.44302 14.0945H8.00968ZM8.4208 13.8726C8.56456 13.8726 8.62176 13.9127 8.65448 13.9429C8.69912 13.9839 8.78832 14.0972 8.83784 14.3545L11.3582 13.8689C11.2271 13.1886 10.9207 12.5406 10.3934 12.055C9.85408 11.5582 9.16296 11.3059 8.4208 11.3059V13.8726ZM8.83736 14.3519L9.80928 19.4524L12.3306 18.9719L11.3587 13.8714L8.83736 14.3519ZM11.07 20.4955H11.1388V17.9288H11.07V20.4955ZM12.3984 19.4576L13.3704 14.4689L10.8511 13.9777L9.87912 18.9667L12.3984 19.4576ZM13.3704 14.4689C13.4304 14.1614 13.5342 14.0423 13.5909 13.995C13.6457 13.9493 13.7737 13.8726 14.0718 13.8726V11.3059C13.3034 11.3059 12.554 11.5174 11.9465 12.0243C11.3409 12.5296 10.9975 13.2273 10.8511 13.9777L13.3704 14.4689ZM14.0718 13.8726C14.3636 13.8726 14.4921 13.9482 14.5491 13.9958C14.6078 14.0448 14.713 14.1666 14.7729 14.4759L17.2928 13.9882C17.1462 13.231 16.7999 12.5314 16.1942 12.0256C15.5867 11.5184 14.8379 11.3059 14.0718 11.3059V13.8726ZM14.7737 14.48L15.7542 19.4601L18.2726 18.9642L17.292 13.9842L14.7737 14.48ZM17.0134 20.4955H17.0822V17.9288H17.0134V20.4955ZM18.3427 19.4529L19.3233 14.318L16.8022 13.8366L15.8216 18.9714L18.3427 19.4529ZM19.3238 14.3152C19.369 14.076 19.4522 13.9722 19.4915 13.9361C19.5198 13.91 19.5714 13.8726 19.7055 13.8726V11.3059C18.971 11.3059 18.2871 11.5566 17.7542 12.0467C17.2323 12.5266 16.9285 13.1669 16.8016 13.8394L19.3238 14.3152ZM19.7055 13.8726C19.901 13.8726 19.9944 13.9346 20.0243 13.9616C20.0405 13.9762 20.0485 13.989 20.0533 13.9998C20.0579 14.0101 20.065 14.0309 20.065 14.0686H22.6317C22.6317 12.3897 21.2442 11.3059 19.7055 11.3059V13.8726ZM20.065 14.0686C20.065 14.2306 20.042 14.3742 19.9048 14.8714L22.3791 15.5539C22.5172 15.0534 22.6317 14.612 22.6317 14.0686H20.065ZM19.9077 14.8611L18.3766 20.2369L20.8452 20.9399L22.3762 15.5642L19.9077 14.8611ZM18.3764 20.2379C18.2207 20.7862 18.0587 20.9914 17.962 21.0734C17.8905 21.1342 17.7357 21.2317 17.2972 21.2317V23.7984C18.1403 23.7984 18.9531 23.5991 19.6235 23.0298C20.2686 22.4819 20.6227 21.7238 20.8455 20.9388L18.3764 20.2379ZM17.2972 21.2317C16.805 21.2317 16.6336 21.1252 16.568 21.0701C16.4932 21.0072 16.3436 20.8313 16.2295 20.3012L13.7202 20.8411C13.8986 21.67 14.2393 22.466 14.9171 23.0354C15.6041 23.6125 16.4476 23.7984 17.2972 23.7984V21.2317ZM16.2295 20.3012L15.2833 15.914L12.7742 16.4551L13.7202 20.8411L16.2295 20.3012ZM14.0288 14.9012H13.96V17.4679H14.0288V14.9012ZM12.7046 15.9183L11.767 20.3394L14.2778 20.8718L15.2154 16.4508L12.7046 15.9183ZM11.767 20.3394C11.6571 20.859 11.5118 21.0243 11.446 21.0794C11.3879 21.1281 11.2255 21.2317 10.7431 21.2317V23.7984C11.5767 23.7984 12.412 23.6182 13.0937 23.0474C13.7675 22.4833 14.1039 21.6938 14.2778 20.8718L11.767 20.3394ZM25.2189 18.3005V17.0171H23.9355V18.3005H25.2189ZM30.9559 20.8292L29.8655 20.1524L29.8608 20.16L29.8562 20.1676L30.9559 20.8292ZM25.2705 16.391L23.9917 16.2833L23.8746 17.6743H25.2705V16.391ZM28.2293 16.391V17.6743H29.6066L29.5094 16.3005L28.2293 16.391ZM26.7843 21.2575C25.4814 21.2575 24.5974 20.8754 24.041 20.321C23.4851 19.7672 23.1048 18.8909 23.1048 17.6038H20.5381C20.5381 19.4045 21.0824 20.9966 22.2295 22.1394C23.3761 23.2816 24.9736 23.8242 26.7843 23.8242V21.2575ZM23.1048 17.6038C23.1048 16.3078 23.4902 15.393 24.0522 14.8094C24.6088 14.2314 25.4649 13.8468 26.6725 13.8468V11.2801C24.8955 11.2801 23.3261 11.8632 22.2034 13.029C21.0858 14.1894 20.5381 15.7946 20.5381 17.6038H23.1048ZM26.6725 13.8468C27.8681 13.8468 28.7495 14.224 29.3204 14.7578C29.8866 15.2872 30.2316 16.047 30.2316 16.993H32.7983C32.7983 15.3846 32.1929 13.9296 31.0733 12.8829C29.9583 11.8405 28.4186 11.2801 26.6725 11.2801V13.8468ZM30.2316 16.993C30.2316 17.0837 30.2185 17.1183 30.2198 17.1149C30.2206 17.1126 30.2247 17.1021 30.2346 17.0866C30.2446 17.071 30.258 17.0542 30.2745 17.0382C30.2909 17.0225 30.3064 17.0114 30.3182 17.0045C30.3296 16.9977 30.3344 16.9966 30.3291 16.9984C30.317 17.0025 30.2646 17.0171 30.156 17.0171V19.5838C30.8107 19.5838 31.5131 19.4086 32.0545 18.8874C32.6034 18.359 32.7983 17.657 32.7983 16.993H30.2316ZM30.156 17.0171H25.2189V19.5838H30.156V17.0171ZM23.9355 18.3005V18.5241H26.5022V18.3005H23.9355ZM23.9355 18.5241C23.9355 20.1709 25.1902 21.4073 26.8359 21.4073V18.8406C26.6741 18.8406 26.6034 18.7881 26.5766 18.7614C26.5501 18.7351 26.5022 18.6707 26.5022 18.5241H23.9355ZM26.8359 21.4073C27.358 21.4073 27.8594 21.3263 28.3587 21.1181C28.8474 20.9143 29.2716 20.6146 29.6731 20.2594L27.973 18.3366C27.7035 18.5749 27.5166 18.6884 27.371 18.7491C27.2359 18.8054 27.0794 18.8406 26.8359 18.8406V21.4073ZM29.6731 20.2594C29.7974 20.1496 29.8354 20.1393 29.8222 20.1447C29.8154 20.1474 29.8107 20.1482 29.8148 20.1474C29.8214 20.1463 29.8455 20.1429 29.8979 20.1429V17.5762C29.5647 17.5762 29.2149 17.6206 28.8534 17.7679C28.5026 17.9109 28.2185 18.1196 27.973 18.3366L29.6731 20.2594ZM29.8979 20.1429C29.9307 20.1429 29.9538 20.1483 29.966 20.1525C29.978 20.1566 29.9741 20.1577 29.9612 20.1466C29.9469 20.1343 29.929 20.1132 29.9162 20.0852C29.9102 20.0722 29.907 20.0614 29.9055 20.0543C29.904 20.0474 29.9048 20.0471 29.9048 20.0551H32.4714C32.4714 18.4142 31.0974 17.5762 29.8979 17.5762V20.1429ZM29.9048 20.0551C29.9048 20.0587 29.9074 20.085 29.8655 20.1524L32.0462 21.506C32.3141 21.0746 32.4714 20.5847 32.4714 20.0551H29.9048ZM29.8562 20.1676C29.5647 20.6522 28.543 21.2575 26.7843 21.2575V23.8242C28.8961 23.8242 31.0741 23.1221 32.0555 21.4908L29.8562 20.1676ZM25.2705 17.6743H28.2293V15.1077H25.2705V17.6743ZM29.5094 16.3005C29.4594 15.5919 29.1771 14.9268 28.6566 14.4365C28.1355 13.9457 27.4556 13.7057 26.7499 13.7057V16.2723C26.8132 16.2723 26.8511 16.2827 26.8694 16.2896C26.887 16.2962 26.894 16.3022 26.8967 16.3049C26.8996 16.3075 26.9082 16.3162 26.9183 16.3388C26.9288 16.3621 26.9439 16.4073 26.9492 16.4815L29.5094 16.3005ZM26.7499 13.7057C25.2446 13.7057 24.1132 14.8406 23.9917 16.2833L26.5494 16.4986C26.5589 16.3854 26.5995 16.3334 26.6202 16.3137C26.6387 16.2962 26.6731 16.2723 26.7499 16.2723V13.7057Z" fill="#F7F7F7"/>
</g>
</g>
<defs>
<linearGradient id="paint0_linear_1_38" x1="2.56669" y1="3.56669" x2="30.1586" y2="29.8753" gradientUnits="userSpaceOnUse">
<stop/>
<stop offset="1"/>
</linearGradient>
<radialGradient id="paint1_radial_1_38" cx="0" cy="0" r="1" gradientUnits="userSpaceOnUse" gradientTransform="translate(29.8753 24.1002) rotate(-94.0856) scale(9.00632)">
<stop offset="0.155" stop-color="#F9F9F9"/>
<stop offset="1" stop-color="white" stop-opacity="0"/>
</radialGradient>
<clipPath id="clip0_1_38">
<rect width="32" height="32" fill="white"/>
</clipPath>
</defs>
</svg>
