<svg width="256" height="256" viewBox="0 0 256 256" fill="none" xmlns="http://www.w3.org/2000/svg">
<g clip-path="url(#clip0_1_38)">
<path fill-rule="evenodd" clip-rule="evenodd" d="M61.6006 18.2668H174.535C202.886 18.2668 225.869 41.2497 225.869 69.6006V85.3856C229.48 86.1555 232.915 87.2672 236.136 88.7078V69.6006C236.136 35.5795 208.556 8 174.535 8H61.6006C27.5795 8 0 35.5795 0 69.6006V182.535C0 216.556 27.5795 244.136 61.6006 244.136H174.535C208.556 244.136 236.136 216.556 236.136 182.535V181.007C232.856 182.141 229.398 182.984 225.859 183.553C225.316 211.434 202.546 233.869 174.535 233.869H61.6006C33.2497 233.869 10.2668 210.886 10.2668 182.535V69.6006C10.2668 41.2497 33.2497 18.2668 61.6006 18.2668ZM225.869 173.141C229.626 172.424 233.083 171.354 236.136 169.973V145.06C234.225 145.515 232.578 146.495 230.589 148.252C229.626 149.105 228.692 149.865 227.775 150.537C227.133 151.007 226.5 151.434 225.869 151.821V173.141ZM225.869 140.271H236.136V100.29C233.084 98.4166 229.646 96.9446 225.869 95.9379V140.271Z" fill="url(#paint0_linear_1_38)"/>
<path fill-rule="evenodd" clip-rule="evenodd" d="M120.7 18.2668H134.817C138.361 18.2668 141.234 41.2497 141.234 69.6006V85.3856C141.685 86.1555 142.114 87.2672 142.517 88.7078V69.6006C142.517 35.5795 139.07 8 134.817 8H120.7C116.447 8 113 35.5795 113 69.6006V182.535C113 216.556 116.447 244.136 120.7 244.136H134.817C139.07 244.136 142.517 216.556 142.517 182.535V181.007C142.107 182.141 141.675 182.984 141.232 183.553C141.165 211.434 138.318 233.869 134.817 233.869H120.7C117.156 233.869 114.283 210.886 114.283 182.535V69.6006C114.283 41.2497 117.156 18.2668 120.7 18.2668ZM141.234 173.141C141.703 172.424 142.135 171.354 142.517 169.973V145.06C142.278 145.515 142.072 146.495 141.824 148.252C141.703 149.105 141.587 149.865 141.472 150.537C141.392 151.007 141.312 151.434 141.234 151.821V173.141ZM141.234 140.271H142.517V100.29C142.135 98.4166 141.706 96.9446 141.234 95.9379V140.271Z" fill="url(#paint1_radial_1_38)"/>
<path d="M85.945 180.12C75.8989 180.12 70.807 175.372 67.7792 164.845L55.5312 122.045C54.3615 117.985 53.811 115.646 53.811 112.756C53.811 105.806 59.591 100.714 67.3664 100.714C74.4538 100.714 79.3395 105.393 80.784 112.893L88.56 153.697H89.1104L96.8858 113.788C98.537 105.324 104.042 100.714 112.574 100.714C121.038 100.714 126.611 105.324 128.263 113.857L136.107 153.697H136.657L144.502 112.618C145.878 105.324 150.694 100.714 157.644 100.714C165.282 100.714 170.787 105.737 170.787 112.549C170.787 115.37 170.237 117.71 169.135 121.701L156.888 164.707C153.86 175.372 148.63 180.12 138.378 180.12C127.644 180.12 122.139 175.441 119.799 164.57L112.23 129.476H111.68L104.179 164.845C101.908 175.579 96.473 180.12 85.945 180.12ZM214.275 180.326C189.366 180.326 174.572 165.533 174.572 140.83C174.572 115.99 189.503 100.508 213.38 100.508C236.913 100.508 252.12 115.508 252.12 135.944C252.12 142.688 248.266 146.404 241.248 146.404H201.751V148.193C201.751 155.624 207.118 160.991 214.687 160.991C220.812 160.991 225.215 159.133 230.582 154.385C233.541 151.771 235.743 150.876 239.183 150.876C244.62 150.876 249.505 154.385 249.505 160.441C249.505 162.574 248.886 164.638 247.647 166.634C242.556 175.097 229.757 180.326 214.275 180.326ZM202.164 131.128H225.834C225.353 124.316 220.605 119.912 213.999 119.912C207.6 119.912 202.714 124.591 202.164 131.128Z" fill="black"/>
<mask id="mask0_1_38" style="mask-type:luminance" maskUnits="userSpaceOnUse" x="38" y="88" width="225" height="104">
<path d="M262.534 88.8H38.5338V191.2H262.534V88.8Z" fill="white"/>
<path d="M85.945 180.12C75.8989 180.12 70.807 175.372 67.7792 164.845L55.5312 122.045C54.3615 117.985 53.811 115.646 53.811 112.756C53.811 105.806 59.591 100.714 67.3664 100.714C74.4538 100.714 79.3395 105.393 80.784 112.893L88.56 153.697H89.1104L96.8858 113.788C98.537 105.324 104.042 100.714 112.574 100.714C121.038 100.714 126.611 105.324 128.263 113.857L136.107 153.697H136.657L144.502 112.618C145.878 105.324 150.694 100.714 157.644 100.714C165.282 100.714 170.787 105.737 170.787 112.549C170.787 115.37 170.237 117.71 169.135 121.701L156.888 164.707C153.86 175.372 148.63 180.12 138.378 180.12C127.644 180.12 122.139 175.441 119.799 164.57L112.23 129.476H111.68L104.179 164.845C101.908 175.579 96.473 180.12 85.945 180.12ZM214.275 180.326C189.366 180.326 174.572 165.533 174.572 140.83C174.572 115.99 189.503 100.508 213.38 100.508C236.913 100.508 252.12 115.508 252.12 135.944C252.12 142.688 248.266 146.404 241.248 146.404H201.751V148.193C201.751 155.624 207.118 160.991 214.687 160.991C220.812 160.991 225.215 159.133 230.582 154.385C233.541 151.771 235.743 150.876 239.183 150.876C244.62 150.876 249.505 154.385 249.505 160.441C249.505 162.574 248.886 164.638 247.647 166.634C242.556 175.097 229.757 180.326 214.275 180.326ZM202.164 131.128H225.834C225.353 124.316 220.605 119.912 213.999 119.912C207.6 119.912 202.714 124.591 202.164 131.128Z" fill="black"/>
</mask>
<g mask="url(#mask0_1_38)">
<path d="M67.7792 164.845L57.9087 167.669L57.9124 167.682L67.7792 164.845ZM55.5312 122.045L65.4016 119.22L65.3965 119.203L55.5312 122.045ZM80.784 112.893L90.8697 110.972L90.8659 110.951L80.784 112.893ZM88.56 153.697L78.4742 155.619L80.0646 163.964H88.56V153.697ZM89.1104 153.697V163.964H97.5699L99.1872 155.661L89.1104 153.697ZM128.263 113.857L118.183 115.807L118.189 115.84L128.263 113.857ZM136.107 153.697L126.034 155.681L127.665 163.964H136.107V153.697ZM136.657 153.697V163.964H145.149L146.742 155.623L136.657 153.697ZM144.502 112.618L154.586 114.544L154.591 114.522L144.502 112.618ZM169.135 121.701L179.01 124.513L179.033 124.431L169.135 121.701ZM156.888 164.707L147.013 161.895L147.011 161.903L156.888 164.707ZM112.23 129.476L122.266 127.312L120.518 119.21H112.23V129.476ZM111.68 129.476V119.21H103.362L101.636 127.347L111.68 129.476ZM85.945 169.853C82.592 169.853 81.4515 169.1 80.9286 168.65C80.1779 168.003 78.9005 166.368 77.6461 162.007L57.9124 167.682C59.6858 173.849 62.4683 179.852 67.5315 184.211C72.823 188.767 79.2518 190.387 85.945 190.387V169.853ZM77.6499 162.02L65.4016 119.22L45.6607 124.87L57.9087 167.669L77.6499 162.02ZM65.3965 119.203C64.2547 115.239 64.0774 114.093 64.0774 112.756H43.5442C43.5442 117.199 44.4683 120.732 45.6658 124.888L65.3965 119.203ZM64.0774 112.756C64.0774 112.294 64.2074 112.056 64.4819 111.813C64.8237 111.51 65.7107 110.981 67.3664 110.981V90.4474C55.1227 90.4474 43.5442 99.0042 43.5442 112.756H64.0774ZM67.3664 110.981C68.5165 110.981 68.9741 111.302 69.2358 111.543C69.593 111.871 70.3066 112.778 70.7027 114.836L90.8659 110.951C89.817 105.509 87.3658 100.325 83.1469 96.4397C78.8326 92.4659 73.3037 90.4474 67.3664 90.4474V110.981ZM70.6989 114.815L78.4742 155.619L98.6451 151.775L90.8697 110.972L70.6989 114.815ZM88.56 163.964H89.1104V143.43H88.56V163.964ZM99.1872 155.661L106.963 115.751L86.809 111.821L79.033 151.734L99.1872 155.661ZM106.963 115.751C107.443 113.291 108.274 112.339 108.727 111.96C109.165 111.594 110.189 110.981 112.574 110.981V90.4474C106.427 90.4474 100.432 92.1389 95.5718 96.1946C90.727 100.237 87.9802 105.818 86.809 111.821L106.963 115.751ZM112.574 110.981C114.909 110.981 115.937 111.586 116.393 111.967C116.862 112.358 117.704 113.333 118.183 115.807L138.342 111.906C137.17 105.848 134.399 100.252 129.553 96.2048C124.694 92.1472 118.703 90.4474 112.574 90.4474V110.981ZM118.189 115.84L126.034 155.681L146.18 151.714L138.336 111.873L118.189 115.84ZM136.107 163.964H136.657V143.43H136.107V163.964ZM146.742 155.623L154.586 114.544L134.417 110.692L126.573 151.772L146.742 155.623ZM154.591 114.522C154.952 112.608 155.617 111.778 155.932 111.489C156.159 111.28 156.571 110.981 157.644 110.981V90.4474C151.768 90.4474 146.297 92.4531 142.034 96.3738C137.859 100.212 135.428 105.335 134.413 110.715L154.591 114.522ZM157.644 110.981C159.208 110.981 159.955 111.476 160.195 111.693C160.324 111.81 160.388 111.912 160.426 111.998C160.463 112.081 160.52 112.247 160.52 112.549H181.053C181.053 99.1174 169.954 90.4474 157.644 90.4474V110.981ZM160.52 112.549C160.52 113.845 160.336 114.993 159.238 118.971L179.033 124.431C180.138 120.427 181.053 116.896 181.053 112.549H160.52ZM159.261 118.889L147.013 161.895L166.762 167.519L179.01 124.513L159.261 118.889ZM147.011 161.903C145.766 166.289 144.47 167.931 143.696 168.588C143.124 169.073 141.885 169.853 138.378 169.853V190.387C145.123 190.387 151.625 188.793 156.988 184.239C162.149 179.855 164.982 173.79 166.764 167.51L147.011 161.903ZM138.378 169.853C134.44 169.853 133.069 169.002 132.544 168.561C131.946 168.058 130.749 166.65 129.836 162.41L109.762 166.729C111.189 173.36 113.914 179.728 119.337 184.283C124.833 188.9 131.581 190.387 138.378 190.387V169.853ZM129.836 162.41L122.266 127.312L102.194 131.641L109.762 166.729L129.836 162.41ZM112.23 119.21H111.68V139.743H112.23V119.21ZM101.636 127.347L94.1363 162.715L114.223 166.974L121.723 131.606L101.636 127.347ZM94.1363 162.715C93.257 166.872 92.0947 168.195 91.568 168.636C91.1034 169.025 89.8042 169.853 85.945 169.853V190.387C92.6138 190.387 99.296 188.945 104.749 184.38C110.14 179.866 112.831 173.551 114.223 166.974L94.1363 162.715ZM201.751 146.404V136.137H191.484V146.404H201.751ZM247.647 166.634L238.924 161.219L238.886 161.28L238.85 161.341L247.647 166.634ZM202.164 131.128L191.933 130.266L190.996 141.395H202.164V131.128ZM225.834 131.128V141.395H236.853L236.076 130.404L225.834 131.128ZM214.275 170.06C203.852 170.06 196.78 167.003 192.328 162.568C187.881 158.138 184.838 151.127 184.838 140.83H164.305C164.305 155.236 168.659 167.973 177.836 177.116C187.009 186.253 199.789 190.593 214.275 190.593V170.06ZM184.838 140.83C184.838 130.463 187.922 123.144 192.417 118.476C196.87 113.851 203.719 110.774 213.38 110.774V90.2406C199.164 90.2406 186.609 94.9056 177.627 104.232C168.687 113.516 164.305 126.357 164.305 140.83H184.838ZM213.38 110.774C222.945 110.774 229.996 113.792 234.563 118.062C239.093 122.298 241.853 128.376 241.853 135.944H262.387C262.387 123.076 257.543 111.437 248.586 103.063C239.667 94.7238 227.348 90.2406 213.38 90.2406V110.774ZM241.853 135.944C241.853 136.669 241.748 136.947 241.758 136.919C241.764 136.9 241.798 136.817 241.876 136.693C241.956 136.568 242.064 136.433 242.196 136.306C242.327 136.18 242.451 136.092 242.545 136.036C242.637 135.981 242.675 135.973 242.633 135.987C242.536 136.02 242.117 136.137 241.248 136.137V156.67C246.486 156.67 252.105 155.268 256.436 151.1C260.828 146.872 262.387 141.256 262.387 135.944H241.853ZM241.248 136.137H201.751V156.67H241.248V136.137ZM191.484 146.404V148.193H212.018V146.404H191.484ZM191.484 148.193C191.484 161.367 201.521 171.258 214.687 171.258V150.724C213.393 150.724 212.828 150.305 212.613 150.092C212.401 149.881 212.018 149.366 212.018 148.193H191.484ZM214.687 171.258C218.864 171.258 222.876 170.611 226.87 168.945C230.78 167.315 234.173 164.916 237.385 162.076L223.784 146.692C221.628 148.599 220.132 149.507 218.968 149.993C217.887 150.443 216.635 150.724 214.687 150.724V171.258ZM237.385 162.076C238.38 161.197 238.684 161.114 238.578 161.158C238.524 161.18 238.486 161.185 238.518 161.18C238.571 161.171 238.764 161.143 239.183 161.143V140.609C236.518 140.609 233.719 140.964 230.827 142.143C228.02 143.287 225.748 144.957 223.784 146.692L237.385 162.076ZM239.183 161.143C239.446 161.143 239.631 161.187 239.728 161.22C239.824 161.253 239.793 161.261 239.69 161.173C239.575 161.075 239.432 160.906 239.329 160.682C239.281 160.577 239.256 160.491 239.244 160.435C239.232 160.38 239.238 160.377 239.238 160.441H259.772C259.772 147.314 248.779 140.609 239.183 140.609V161.143ZM239.238 160.441C239.238 160.47 239.259 160.68 238.924 161.219L256.37 172.048C258.513 168.596 259.772 164.678 259.772 160.441H239.238ZM238.85 161.341C236.518 165.217 228.344 170.06 214.275 170.06V190.593C231.169 190.593 248.593 184.977 256.444 171.926L238.85 161.341ZM202.164 141.395H225.834V120.861H202.164V141.395ZM236.076 130.404C235.675 124.735 233.417 119.414 229.253 115.492C225.084 111.565 219.645 109.645 213.999 109.645V130.179C214.506 130.179 214.809 130.262 214.956 130.317C215.096 130.37 215.152 130.418 215.174 130.439C215.197 130.46 215.265 130.529 215.347 130.71C215.43 130.897 215.551 131.258 215.594 131.852L236.076 130.404ZM213.999 109.645C201.956 109.645 192.906 118.724 191.933 130.266L212.395 131.989C212.471 131.084 212.796 130.668 212.962 130.509C213.11 130.369 213.385 130.179 213.999 130.179V109.645Z" fill="#F7F7F7"/>
</g>
</g>
<defs>
<linearGradient id="paint0_linear_1_38" x1="20.5335" y1="28.5335" x2="241.269" y2="239.002" gradientUnits="userSpaceOnUse">
<stop/>
<stop offset="1"/>
</linearGradient>
<radialGradient id="paint1_radial_1_38" cx="0" cy="0" r="1" gradientUnits="userSpaceOnUse" gradientTransform="translate(141.875 192.802) rotate(-90.5116) scale(71.8703 9.02891)">
<stop offset="0.155" stop-color="#F9F9F9"/>
<stop offset="1" stop-color="white" stop-opacity="0"/>
</radialGradient>
<clipPath id="clip0_1_38">
<rect width="256" height="256" fill="white"/>
</clipPath>
</defs>
</svg>
