<svg width="119" height="37" viewBox="0 0 119 37" fill="none" xmlns="http://www.w3.org/2000/svg">
<path d="M43.3385 26.7863C41.1667 26.7863 39.5003 25.6036 39.1455 23.8404C39.124 23.7759 39.1132 23.7006 39.1132 23.6361C39.1132 23.4856 39.1992 23.3781 39.3605 23.3781C39.5325 23.3781 39.5863 23.4856 39.6615 23.7759C40.0916 25.3456 41.5 26.3132 43.36 26.3132C45.3276 26.3132 46.7898 25.2488 46.7898 23.7544C46.7898 22.4642 46.0264 21.7761 44.0696 21.3245L42.5752 20.9912C40.4249 20.4967 39.4573 19.6473 39.4573 18.2388C39.4573 16.5079 41.0055 15.2822 43.2203 15.2822C45.2953 15.2822 46.7468 16.4434 47.1016 18.2711C47.1231 18.3679 47.1338 18.4646 47.1338 18.5291C47.1338 18.7012 47.0478 18.7979 46.8973 18.7979C46.7468 18.7979 46.6822 18.7227 46.607 18.4109C46.2737 16.9809 45.1663 15.7553 43.188 15.7553C41.3388 15.7553 39.9948 16.8089 39.9948 18.2173C39.9948 19.4 40.7797 20.0558 42.7257 20.5074L44.2202 20.8515C46.4457 21.3675 47.3273 22.1846 47.3273 23.7221C47.3273 25.5283 45.6824 26.7863 43.3385 26.7863ZM49.7894 24.2059V15.9273H48.2842C48.1122 15.9273 48.0154 15.8305 48.0154 15.6907C48.0154 15.5295 48.1122 15.4435 48.2842 15.4435H49.7894V12.6158C49.7894 12.4331 49.8969 12.3255 50.0475 12.3255C50.2087 12.3255 50.3162 12.4331 50.3162 12.6158V15.4435H52.4128C52.5848 15.4435 52.6816 15.5295 52.6816 15.6907C52.6816 15.8305 52.5848 15.9273 52.4128 15.9273H50.3162V24.1737C50.3162 25.5929 50.8216 26.1304 51.9935 26.1412H52.6171C52.7891 26.1412 52.8858 26.2272 52.8858 26.3777C52.8858 26.5282 52.7891 26.6357 52.5848 26.6357H51.9612C50.4668 26.6357 49.7894 25.9369 49.7894 24.2059ZM57.5412 26.7863C55.3694 26.7863 53.8535 25.5068 53.8535 23.6576C53.8535 21.7868 55.1759 20.6687 57.7885 20.4644L61.8203 20.1634V19.1527C61.8203 17.0454 60.5624 15.766 58.4551 15.766C56.5091 15.766 55.1759 16.6691 54.7674 18.5399C54.7351 18.7012 54.6598 18.7872 54.5201 18.7872C54.3695 18.7872 54.2835 18.6904 54.2835 18.5291C54.2835 18.3786 54.3373 18.1206 54.4018 17.9163C54.8749 16.3788 56.2941 15.2822 58.4551 15.2822C60.8742 15.2822 62.3471 16.7444 62.3471 19.1097V26.5067C62.3471 26.6788 62.2396 26.7863 62.0891 26.7863C61.9278 26.7863 61.8203 26.6788 61.8203 26.5067V24.0876H61.8096C61.272 25.6789 59.5303 26.7863 57.5412 26.7863ZM57.5842 26.3025C59.9066 26.3025 61.8203 24.6037 61.8203 22.5072V20.6257L57.8638 20.9267C55.5845 21.0987 54.3803 22.0879 54.3803 23.6038C54.3803 25.2166 55.735 26.3025 57.5842 26.3025ZM65.035 26.7863C64.8845 26.7863 64.777 26.6788 64.777 26.496V15.551C64.777 15.3897 64.863 15.2822 65.0243 15.2822C65.1855 15.2822 65.2715 15.3897 65.2715 15.551V17.7658H65.293C65.7661 16.1531 66.8628 15.2822 68.3035 15.2822C68.669 15.2822 69.0131 15.3144 69.3356 15.4435C69.4969 15.5187 69.6259 15.594 69.6259 15.7553C69.6259 15.8628 69.5614 15.9488 69.4431 15.9595C69.2173 15.9703 68.97 15.7875 68.3035 15.7875C66.4112 15.7875 65.3038 17.4217 65.3038 19.658V26.496C65.3038 26.6788 65.1963 26.7863 65.035 26.7863ZM71.9805 24.2059V15.9273H70.4753C70.3032 15.9273 70.2065 15.8305 70.2065 15.6907C70.2065 15.5295 70.3032 15.4435 70.4753 15.4435H71.9805V12.6158C71.9805 12.4331 72.088 12.3255 72.2385 12.3255C72.3998 12.3255 72.5073 12.4331 72.5073 12.6158V15.4435H74.6038C74.7758 15.4435 74.8726 15.5295 74.8726 15.6907C74.8726 15.8305 74.7758 15.9273 74.6038 15.9273H72.5073V24.1737C72.5073 25.5929 73.0126 26.1304 74.1845 26.1412H74.8081C74.9801 26.1412 75.0769 26.2272 75.0769 26.3777C75.0769 26.5282 74.9801 26.6357 74.7758 26.6357H74.1523C72.6578 26.6357 71.9805 25.9369 71.9805 24.2059Z" fill="black"/>
<path d="M79.7323 26.7863C77.5605 26.7863 76.0445 25.5068 76.0445 23.6576C76.0445 21.7868 77.3669 20.6687 79.9796 20.4644L84.0114 20.1634V19.1527C84.0114 17.0454 82.7534 15.766 80.6461 15.766C78.7001 15.766 77.3669 16.6691 76.9584 18.5399C76.9261 18.7012 76.8509 18.7872 76.7111 18.7872C76.5606 18.7872 76.4746 18.6904 76.4746 18.5291C76.4746 18.3786 76.5283 18.1206 76.5928 17.9163C77.0659 16.3788 78.4851 15.2822 80.6461 15.2822C83.0652 15.2822 84.5382 16.7444 84.5382 19.1097V26.5067C84.5382 26.6788 84.4307 26.7863 84.2801 26.7863C84.1189 26.7863 84.0114 26.6788 84.0114 26.5067V24.0876H84.0006C83.463 25.6789 81.7213 26.7863 79.7323 26.7863ZM79.7753 26.3025C82.0976 26.3025 84.0114 24.6037 84.0114 22.5072V20.6257L80.0548 20.9267C77.7755 21.0987 76.5713 22.0879 76.5713 23.6038C76.5713 25.2166 77.926 26.3025 79.7753 26.3025ZM87.226 30.431C87.0755 30.431 86.968 30.3235 86.968 30.1407V15.551C86.968 15.3897 87.0648 15.2822 87.2045 15.2822C87.3658 15.2822 87.4626 15.3897 87.4626 15.551V18.7657H87.4841C87.9464 16.8197 89.6236 15.2822 91.8277 15.2822C94.6123 15.2822 96.5476 17.6153 96.5476 21.0342C96.5476 24.464 94.6231 26.7863 91.8277 26.7863C89.6236 26.7863 87.9571 25.2488 87.5163 23.3565H87.4948V30.1407C87.4948 30.3235 87.3873 30.431 87.226 30.431ZM91.7954 26.3025C94.3005 26.3025 96.0208 24.1629 96.0208 21.045C96.0208 17.9163 94.3005 15.766 91.7954 15.766C89.2688 15.766 87.4948 17.9271 87.4948 21.0342C87.4948 24.1414 89.2688 26.3025 91.7954 26.3025ZM98.7301 30.431C98.5796 30.431 98.4721 30.3235 98.4721 30.1407V15.551C98.4721 15.3897 98.5688 15.2822 98.7086 15.2822C98.8699 15.2822 98.9667 15.3897 98.9667 15.551V18.7657H98.9882C99.4505 16.8197 101.128 15.2822 103.332 15.2822C106.116 15.2822 108.052 17.6153 108.052 21.0342C108.052 24.464 106.127 26.7863 103.332 26.7863C101.128 26.7863 99.4612 25.2488 99.0204 23.3565H98.9989V30.1407C98.9989 30.3235 98.8914 30.431 98.7301 30.431ZM103.299 26.3025C105.805 26.3025 107.525 24.1629 107.525 21.045C107.525 17.9163 105.805 15.766 103.299 15.766C100.773 15.766 98.9989 17.9271 98.9989 21.0342C98.9989 24.1414 100.773 26.3025 103.299 26.3025ZM113.567 26.7863C111.395 26.7863 109.729 25.6036 109.374 23.8404C109.353 23.7759 109.342 23.7006 109.342 23.6361C109.342 23.4856 109.428 23.3781 109.589 23.3781C109.761 23.3781 109.815 23.4856 109.89 23.7759C110.32 25.3456 111.729 26.3132 113.589 26.3132C115.556 26.3132 117.018 25.2488 117.018 23.7544C117.018 22.4642 116.255 21.7761 114.298 21.3245L112.804 20.9912C110.654 20.4967 109.686 19.6473 109.686 18.2388C109.686 16.5079 111.234 15.2822 113.449 15.2822C115.524 15.2822 116.975 16.4434 117.33 18.2711C117.352 18.3679 117.362 18.4646 117.362 18.5291C117.362 18.7012 117.276 18.7979 117.126 18.7979C116.975 18.7979 116.911 18.7227 116.836 18.4109C116.502 16.9809 115.395 15.7553 113.417 15.7553C111.567 15.7553 110.223 16.8089 110.223 18.2173C110.223 19.4 111.008 20.0558 112.954 20.5074L114.449 20.8515C116.674 21.3675 117.556 22.1846 117.556 23.7221C117.556 25.5283 115.911 26.7863 113.567 26.7863Z" fill="black" fill-opacity="0.5"/>
<path fill-rule="evenodd" clip-rule="evenodd" d="M9.62509 1.60418H27.2711C31.7009 1.60418 35.292 5.19527 35.292 9.62509V12.0915C35.8562 12.2118 36.3929 12.3855 36.8962 12.6106V9.62509C36.8962 4.3093 32.5869 0 27.2711 0H9.62509C4.3093 0 0 4.3093 0 9.62509V27.2711C0 32.5869 4.3093 36.8962 9.62509 36.8962H27.2711C32.5869 36.8962 36.8962 32.5869 36.8962 27.2711V27.0323C36.3838 27.2096 35.8435 27.3413 35.2905 27.4302C35.2057 31.7866 31.6478 35.292 27.2711 35.292H9.62509C5.19526 35.292 1.60418 31.7009 1.60418 27.2711V9.62509C1.60418 5.19526 5.19527 1.60418 9.62509 1.60418ZM35.292 25.8033C35.8791 25.6913 36.4192 25.5241 36.8962 25.3083V21.4157C36.5976 21.4867 36.3403 21.6398 36.0296 21.9144C35.879 22.0477 35.7332 22.1664 35.5898 22.2714C35.4896 22.3448 35.3906 22.4116 35.292 22.472V25.8033ZM35.292 20.6673H36.8962V14.4203C36.4193 14.1276 35.8822 13.8976 35.292 13.7403V20.6673Z" fill="url(#paint0_linear_1_11)"/>
<path fill-rule="evenodd" clip-rule="evenodd" d="M9.62509 1.60418H27.2711C31.7009 1.60418 35.292 5.19527 35.292 9.62509V12.0915C35.8562 12.2118 36.3929 12.3855 36.8962 12.6106V9.62509C36.8962 4.3093 32.5869 0 27.2711 0H9.62509C4.3093 0 0 4.3093 0 9.62509V27.2711C0 32.5869 4.3093 36.8962 9.62509 36.8962H27.2711C32.5869 36.8962 36.8962 32.5869 36.8962 27.2711V27.0323C36.3838 27.2096 35.8435 27.3413 35.2905 27.4302C35.2057 31.7866 31.6478 35.292 27.2711 35.292H9.62509C5.19526 35.292 1.60418 31.7009 1.60418 27.2711V9.62509C1.60418 5.19526 5.19527 1.60418 9.62509 1.60418ZM35.292 25.8033C35.8791 25.6913 36.4192 25.5241 36.8962 25.3083V21.4157C36.5976 21.4867 36.3403 21.6398 36.0296 21.9144C35.879 22.0477 35.7332 22.1664 35.5898 22.2714C35.4896 22.3448 35.3906 22.4116 35.292 22.472V25.8033ZM35.292 20.6673H36.8962V14.4203C36.4193 14.1276 35.8822 13.8976 35.292 13.7403V20.6673Z" fill="url(#paint1_radial_1_11)"/>
<mask id="path-3-outside-1_1_11" maskUnits="userSpaceOnUse" x="6.02091" y="12.625" width="35" height="16" fill="black">
<rect fill="white" x="6.02091" y="12.625" width="35" height="16"/>
<path d="M13.4289 26.8938C11.8592 26.8938 11.0636 26.1519 10.5905 24.507L8.67675 17.8195C8.49398 17.1852 8.40797 16.8197 8.40797 16.3681C8.40797 15.2822 9.31109 14.4866 10.526 14.4866C11.6334 14.4866 12.3968 15.2177 12.6225 16.3896L13.8375 22.7652H13.9235L15.1384 16.5294C15.3964 15.2069 16.2565 14.4866 17.5897 14.4866C18.9122 14.4866 19.783 15.2069 20.0411 16.5401L21.2667 22.7652H21.3527L22.5784 16.3466C22.7934 15.2069 23.546 14.4866 24.6319 14.4866C25.8253 14.4866 26.6855 15.2714 26.6855 16.3358C26.6855 16.7766 26.5995 17.1422 26.4274 17.7658L24.5137 24.4855C24.0406 26.1519 23.2235 26.8938 21.6215 26.8938C19.9443 26.8938 19.0842 26.1627 18.7186 24.464L17.536 18.9807H17.45L16.278 24.507C15.9232 26.1842 15.0739 26.8938 13.4289 26.8938ZM33.4804 26.926C29.5884 26.926 27.2768 24.6145 27.2768 20.7547C27.2768 16.8734 29.6099 14.4543 33.3406 14.4543C37.0176 14.4543 39.3937 16.7982 39.3937 19.9913C39.3937 21.045 38.7916 21.6256 37.695 21.6256H31.5236V21.9051C31.5236 23.0663 32.3622 23.9049 33.5449 23.9049C34.5018 23.9049 35.1899 23.6146 36.0285 22.8727C36.4908 22.4642 36.8349 22.3244 37.3724 22.3244C38.2218 22.3244 38.9852 22.8727 38.9852 23.8189C38.9852 24.1522 38.8884 24.4747 38.6949 24.7865C37.8993 26.1089 35.8995 26.926 33.4804 26.926ZM31.5881 19.2387H35.2866C35.2114 18.1743 34.4695 17.4862 33.4374 17.4862C32.4375 17.4862 31.6741 18.2173 31.5881 19.2387Z"/>
</mask>
<path d="M13.4289 26.8938C11.8592 26.8938 11.0636 26.1519 10.5905 24.507L8.67675 17.8195C8.49398 17.1852 8.40797 16.8197 8.40797 16.3681C8.40797 15.2822 9.31109 14.4866 10.526 14.4866C11.6334 14.4866 12.3968 15.2177 12.6225 16.3896L13.8375 22.7652H13.9235L15.1384 16.5294C15.3964 15.2069 16.2565 14.4866 17.5897 14.4866C18.9122 14.4866 19.783 15.2069 20.0411 16.5401L21.2667 22.7652H21.3527L22.5784 16.3466C22.7934 15.2069 23.546 14.4866 24.6319 14.4866C25.8253 14.4866 26.6855 15.2714 26.6855 16.3358C26.6855 16.7766 26.5995 17.1422 26.4274 17.7658L24.5137 24.4855C24.0406 26.1519 23.2235 26.8938 21.6215 26.8938C19.9443 26.8938 19.0842 26.1627 18.7186 24.464L17.536 18.9807H17.45L16.278 24.507C15.9232 26.1842 15.0739 26.8938 13.4289 26.8938ZM33.4804 26.926C29.5884 26.926 27.2768 24.6145 27.2768 20.7547C27.2768 16.8734 29.6099 14.4543 33.3406 14.4543C37.0176 14.4543 39.3937 16.7982 39.3937 19.9913C39.3937 21.045 38.7916 21.6256 37.695 21.6256H31.5236V21.9051C31.5236 23.0663 32.3622 23.9049 33.5449 23.9049C34.5018 23.9049 35.1899 23.6146 36.0285 22.8727C36.4908 22.4642 36.8349 22.3244 37.3724 22.3244C38.2218 22.3244 38.9852 22.8727 38.9852 23.8189C38.9852 24.1522 38.8884 24.4747 38.6949 24.7865C37.8993 26.1089 35.8995 26.926 33.4804 26.926ZM31.5881 19.2387H35.2866C35.2114 18.1743 34.4695 17.4862 33.4374 17.4862C32.4375 17.4862 31.6741 18.2173 31.5881 19.2387Z" fill="black"/>
<path d="M10.5905 24.507L9.04824 24.9483L9.04882 24.9503L10.5905 24.507ZM8.67675 17.8195L10.219 17.3782L10.2182 17.3754L8.67675 17.8195ZM12.6225 16.3896L14.1984 16.0893L14.1978 16.0861L12.6225 16.3896ZM13.8375 22.7652L12.2616 23.0655L12.5101 24.3694H13.8375V22.7652ZM13.9235 22.7652V24.3694H15.2453L15.498 23.072L13.9235 22.7652ZM15.1384 16.5294L13.5639 16.2221L13.5638 16.2226L15.1384 16.5294ZM20.0411 16.5401L18.4661 16.8449L18.4671 16.85L20.0411 16.5401ZM21.2667 22.7652L19.6928 23.0751L19.9476 24.3694H21.2667V22.7652ZM21.3527 22.7652V24.3694H22.6796L22.9284 23.0661L21.3527 22.7652ZM22.5784 16.3466L24.1541 16.6475L24.1548 16.644L22.5784 16.3466ZM26.4274 17.7658L27.9703 18.2052L27.9739 18.1924L26.4274 17.7658ZM24.5137 24.4855L22.9708 24.0461L22.9705 24.0474L24.5137 24.4855ZM18.7186 24.464L20.2869 24.1265L20.2867 24.1257L18.7186 24.464ZM17.536 18.9807L19.1041 18.6425L18.831 17.3765H17.536V18.9807ZM17.45 18.9807V17.3765H16.1503L15.8807 18.6479L17.45 18.9807ZM16.278 24.507L14.7088 24.1742L14.7086 24.175L16.278 24.507ZM13.4289 25.2896C12.905 25.2896 12.7268 25.1719 12.6451 25.1015C12.5278 25.0005 12.3282 24.745 12.1322 24.0636L9.04882 24.9503C9.32591 25.9139 9.76068 26.8518 10.5518 27.5329C11.3786 28.2448 12.3831 28.498 13.4289 28.498V25.2896ZM12.1328 24.0656L10.219 17.3782L7.13448 18.2609L9.04824 24.9483L12.1328 24.0656ZM10.2182 17.3754C10.0398 16.7561 10.0121 16.577 10.0121 16.3681H6.80378C6.80378 17.0623 6.94818 17.6144 7.13528 18.2637L10.2182 17.3754ZM10.0121 16.3681C10.0121 16.2959 10.0324 16.2588 10.0753 16.2208C10.1287 16.1735 10.2673 16.0908 10.526 16.0908V12.8824C8.61292 12.8824 6.80378 14.2194 6.80378 16.3681H10.0121ZM10.526 16.0908C10.7057 16.0908 10.7772 16.1409 10.8181 16.1786C10.8739 16.2299 10.9854 16.3715 11.0473 16.6931L14.1978 16.0861C14.0339 15.2358 13.6509 14.4258 12.9917 13.8187C12.3176 13.1978 11.4537 12.8824 10.526 12.8824V16.0908ZM11.0467 16.6899L12.2616 23.0655L15.4133 22.4649L14.1984 16.0893L11.0467 16.6899ZM13.8375 24.3694H13.9235V21.161H13.8375V24.3694ZM15.498 23.072L16.713 16.8361L13.5638 16.2226L12.3489 22.4584L15.498 23.072ZM16.7129 16.8366C16.7879 16.4522 16.9178 16.3029 16.9886 16.2438C17.0571 16.1866 17.2171 16.0908 17.5897 16.0908V12.8824C16.6292 12.8824 15.6925 13.1467 14.9331 13.7804C14.1761 14.412 13.7469 15.2841 13.5639 16.2221L16.7129 16.8366ZM17.5897 16.0908C17.9545 16.0908 18.1151 16.1853 18.1864 16.2448C18.2597 16.306 18.3913 16.4583 18.4661 16.8449L21.616 16.2353C21.4328 15.2887 20.9999 14.4143 20.2427 13.782C19.4834 13.148 18.5474 12.8824 17.5897 12.8824V16.0908ZM18.4671 16.85L19.6928 23.0751L22.8407 22.4553L21.615 16.2302L18.4671 16.85ZM21.2667 24.3694H21.3527V21.161H21.2667V24.3694ZM22.9284 23.0661L24.1541 16.6475L21.0027 16.0457L19.777 22.4643L22.9284 23.0661ZM24.1548 16.644C24.2112 16.345 24.3152 16.2153 24.3644 16.1701C24.3998 16.1375 24.4642 16.0908 24.6319 16.0908V12.8824C23.7138 12.8824 22.8589 13.1958 22.1928 13.8084C21.5404 14.4082 21.1606 15.2086 21.002 16.0492L24.1548 16.644ZM24.6319 16.0908C24.8763 16.0908 24.993 16.1682 25.0304 16.202C25.0506 16.2203 25.0606 16.2362 25.0666 16.2497C25.0724 16.2626 25.0813 16.2886 25.0813 16.3358H28.2896C28.2896 14.2371 26.5553 12.8824 24.6319 12.8824V16.0908ZM25.0813 16.3358C25.0813 16.5383 25.0525 16.7177 24.881 17.3392L27.9739 18.1924C28.1465 17.5667 28.2896 17.015 28.2896 16.3358H25.0813ZM24.8846 17.3264L22.9708 24.0461L26.0565 24.9249L27.9703 18.2052L24.8846 17.3264ZM22.9705 24.0474C22.7759 24.7327 22.5734 24.9892 22.4525 25.0918C22.3631 25.1677 22.1696 25.2896 21.6215 25.2896V28.498C22.6754 28.498 23.6914 28.2489 24.5294 27.5373C25.3358 26.8524 25.7784 25.9047 26.0569 24.9235L22.9705 24.0474ZM21.6215 25.2896C21.0063 25.2896 20.792 25.1565 20.71 25.0876C20.6165 25.009 20.4295 24.7891 20.2869 24.1265L17.1503 24.8014C17.3733 25.8375 17.7991 26.8325 18.6464 27.5442C19.5051 28.2656 20.5595 28.498 21.6215 28.498V25.2896ZM20.2867 24.1257L19.1041 18.6425L15.9678 19.3189L17.1505 24.8022L20.2867 24.1257ZM17.536 17.3765H17.45V20.5849H17.536V17.3765ZM15.8807 18.6479L14.7088 24.1742L17.8473 24.8397L19.0192 19.3135L15.8807 18.6479ZM14.7086 24.175C14.5712 24.8245 14.3898 25.0304 14.3075 25.0993C14.2349 25.1601 14.0319 25.2896 13.4289 25.2896V28.498C14.4709 28.498 15.515 28.2727 16.3671 27.5593C17.2094 26.8541 17.6301 25.8666 17.8475 24.839L14.7086 24.175ZM31.5236 21.6256V20.0214H29.9194V21.6256H31.5236ZM36.0285 22.8727L34.9662 21.6707L34.9656 21.6712L36.0285 22.8727ZM38.6949 24.7865L37.3319 23.9405L37.326 23.95L37.3203 23.9595L38.6949 24.7865ZM31.5881 19.2387L29.9896 19.1041L29.8432 20.8429H31.5881V19.2387ZM35.2866 19.2387V20.8429H37.0083L36.8868 19.1256L35.2866 19.2387ZM33.4804 25.3219C31.8518 25.3219 30.7468 24.8442 30.0513 24.1513C29.3564 23.459 28.881 22.3636 28.881 20.7547H25.6726C25.6726 23.0056 26.353 24.9958 27.7869 26.4243C29.2201 27.852 31.217 28.5302 33.4804 28.5302V25.3219ZM28.881 20.7547C28.881 19.1348 29.3628 17.9912 30.0652 17.2618C30.761 16.5392 31.8311 16.0585 33.3406 16.0585V12.8501C31.1194 12.8501 29.1576 13.579 27.7542 15.0363C26.3573 16.4868 25.6726 18.4933 25.6726 20.7547H28.881ZM33.3406 16.0585C34.8351 16.0585 35.9369 16.53 36.6505 17.1972C37.3583 17.859 37.7895 18.8088 37.7895 19.9913H40.9979C40.9979 17.9807 40.2411 16.162 38.8416 14.8536C37.4479 13.5506 35.5232 12.8501 33.3406 12.8501V16.0585ZM37.7895 19.9913C37.7895 20.1046 37.7731 20.1479 37.7747 20.1436C37.7757 20.1407 37.7809 20.1276 37.7932 20.1083C37.8057 20.0887 37.8225 20.0677 37.8431 20.0478C37.8636 20.0281 37.883 20.0143 37.8977 20.0056C37.912 19.9971 37.918 19.9958 37.9114 19.998C37.8963 20.0031 37.8308 20.0214 37.695 20.0214V23.2297C38.5134 23.2297 39.3914 23.0107 40.0681 22.3593C40.7543 21.6988 40.9979 20.8212 40.9979 19.9913H37.7895ZM37.695 20.0214H31.5236V23.2297H37.695V20.0214ZM29.9194 21.6256V21.9051H33.1278V21.6256H29.9194ZM29.9194 21.9051C29.9194 23.9636 31.4877 25.5091 33.5449 25.5091V22.3007C33.3426 22.3007 33.2543 22.2351 33.2208 22.2018C33.1876 22.1689 33.1278 22.0884 33.1278 21.9051H29.9194ZM33.5449 25.5091C34.1975 25.5091 34.8243 25.4079 35.4484 25.1476C36.0593 24.8929 36.5895 24.5182 37.0914 24.0743L34.9656 21.6712C34.6288 21.9691 34.3957 22.1105 34.2137 22.1864C34.0449 22.2567 33.8492 22.3007 33.5449 22.3007V25.5091ZM37.0908 24.0748C37.2462 23.9375 37.2943 23.9241 37.2778 23.9309C37.2693 23.9343 37.2634 23.9352 37.2685 23.9343C37.2767 23.9329 37.3069 23.9286 37.3724 23.9286V20.7202C36.9559 20.7202 36.5186 20.7757 36.0667 20.9599C35.6282 21.1386 35.2731 21.3995 34.9662 21.6707L37.0908 24.0748ZM37.3724 23.9286C37.4134 23.9286 37.4423 23.9354 37.4575 23.9406C37.4725 23.9458 37.4676 23.9471 37.4515 23.9333C37.4336 23.9179 37.4113 23.8915 37.3952 23.8565C37.3877 23.8402 37.3837 23.8267 37.3819 23.8179C37.38 23.8093 37.381 23.8089 37.381 23.8189H40.5893C40.5893 21.7678 38.8717 20.7202 37.3724 20.7202V23.9286ZM37.381 23.8189C37.381 23.8234 37.3842 23.8562 37.3319 23.9405L40.0578 25.6325C40.3926 25.0932 40.5893 24.4809 40.5893 23.8189H37.381ZM37.3203 23.9595C36.9559 24.5652 35.6788 25.3219 33.4804 25.3219V28.5302C36.1201 28.5302 38.8426 27.6526 40.0694 25.6135L37.3203 23.9595ZM31.5881 20.8429H35.2866V17.6346H31.5881V20.8429ZM36.8868 19.1256C36.8242 18.2399 36.4714 17.4085 35.8208 16.7956C35.1694 16.1821 34.3195 15.8821 33.4374 15.8821V19.0904C33.5165 19.0904 33.5639 19.1034 33.5868 19.112C33.6088 19.1203 33.6175 19.1278 33.6209 19.1311C33.6245 19.1344 33.6352 19.1452 33.6479 19.1735C33.661 19.2026 33.6799 19.2591 33.6865 19.3519L36.8868 19.1256ZM33.4374 15.8821C31.5557 15.8821 30.1415 17.3007 29.9896 19.1041L33.1867 19.3733C33.1986 19.2318 33.2494 19.1668 33.2753 19.1421C33.2984 19.1202 33.3414 19.0904 33.4374 19.0904V15.8821Z" fill="#F7F7F7" mask="url(#path-3-outside-1_1_11)"/>
<defs>
<linearGradient id="paint0_linear_1_11" x1="3.20836" y1="3.20836" x2="37.6983" y2="36.0941" gradientUnits="userSpaceOnUse">
<stop/>
<stop offset="1"/>
</linearGradient>
<radialGradient id="paint1_radial_1_11" cx="0" cy="0" r="1" gradientUnits="userSpaceOnUse" gradientTransform="translate(36.0941 28.8753) rotate(-94.0856) scale(11.2579)">
<stop offset="0.155" stop-color="#F9F9F9"/>
<stop offset="1" stop-color="white" stop-opacity="0"/>
</radialGradient>
</defs>
</svg>
